<svg width="205" height="66" viewBox="0 0 205 66" fill="none" xmlns="http://www.w3.org/2000/svg">
<path d="M0.29632 12.8848C0.132855 14.0392 0.0715557 15.2141 0.0409061 16.3686C0.020473 17.0224 0.0102265 17.6763 0.0102265 18.3302C9.97732e-06 19.1067 0 19.8831 0 20.6595V46.487V47.6517C0 48.3056 0.0102465 48.9594 0.0306796 49.6133C0.0715457 51.0334 0.153273 52.4739 0.408687 53.8838C0.613017 54.9769 0.899043 56.0088 1.32814 57.0203L28.9333 52.7088L28.923 52.1265V51.9631V51.8813V51.7485C28.8924 51.0435 28.8311 50.1445 28.7289 49.0514L28.7085 48.847L28.6778 48.4894C28.4735 46.4257 27.8196 44.5152 26.6754 43.0951C25.2348 41.3072 23.0281 40.2855 19.6975 40.2651H19.5953H17.9709L17.2864 38.7939C15.6313 35.2488 14.8344 31.7241 14.8344 28.1891C14.8344 23.7347 16.6428 19.4335 19.8201 16.246C19.9121 16.154 20.004 16.0621 20.0959 15.9702L0.29632 12.8848Z" fill="white"/>
<path d="M48.6748 20.4336C49.9212 22.814 50.5853 25.4703 50.5853 28.1879C50.5853 31.6922 49.7986 35.1863 48.1844 38.6905L48.1333 38.7927L47.4488 40.2639H45.8244C42.4631 40.2639 40.2359 41.2651 38.7852 43.053C37.6409 44.4527 36.9768 46.3325 36.7622 48.3963L36.7521 48.4576L36.7214 48.7845L36.7112 48.9275L36.6806 49.2034C36.5988 50.1228 36.5375 50.8993 36.5068 51.5328L65.4095 47.017C65.4095 46.4449 65.4095 45.883 65.4095 45.3211V23.0388L48.6748 20.4336Z" fill="white"/>
<path d="M19.0515 0.307617L16.2522 0.338266C14.8117 0.379132 13.3507 0.460859 11.9306 0.716273C10.4798 0.971686 9.13128 1.39056 7.82356 2.05464C6.52606 2.7085 5.35111 3.55646 4.31924 4.5679C3.29758 5.57934 2.4394 6.75425 1.77533 8.03132C1.37688 8.79756 1.07039 9.57401 0.825195 10.3811L22.8214 13.8139C25.6616 12.0157 29.0433 11.0248 32.6906 11.0248C37.7478 11.0248 42.2839 12.9149 45.5839 16.2352C46.0027 16.6541 46.391 17.0934 46.7588 17.5429L65.3733 20.4546V19.4841V18.3194C65.3733 17.6655 65.3631 17.0117 65.3427 16.3578C65.3018 14.9275 65.2201 13.4972 64.9647 12.0873C64.7093 10.657 64.2802 9.3186 63.6059 8.0211C62.952 6.74403 62.0938 5.56911 61.062 4.55767C60.0403 3.54623 58.8552 2.68808 57.5577 2.04444C56.2397 1.38037 54.8911 0.961491 53.4506 0.706077C52.0203 0.450664 50.5696 0.368905 49.129 0.328039C48.8532 0.317823 48.5773 0.317834 48.138 0.307617H19.0515Z" fill="white"/>
<path d="M32.7096 13.5869C23.5862 13.5869 17.3848 20.6159 17.3848 28.1966C17.3848 31.2411 18.0488 34.4082 19.6017 37.7286C28.674 37.7286 30.8502 44.2876 31.2282 48.3334L31.2384 48.4049C31.4019 50.06 31.4938 51.3472 31.4938 52.2565V52.3383L33.9254 51.9603C33.9458 51.0816 34.0275 49.9271 34.1705 48.4866L34.2012 48.221C34.6201 44.1753 36.8371 37.7388 45.8174 37.7388C47.3703 34.4185 48.0344 31.2513 48.0344 28.2068C48.0344 20.6057 41.833 13.5869 32.7096 13.5869Z" fill="white"/>
<path d="M65.3668 49.623L2.64746 59.4207C3.13786 60.1358 3.69972 60.8102 4.32293 61.4231C5.34458 62.4346 6.52976 63.2928 7.82726 63.9364C9.14519 64.6005 10.4937 65.0194 11.9343 65.2748C13.3646 65.5302 14.8154 65.6119 16.2559 65.6528C16.5318 65.663 16.8076 65.663 17.2469 65.6732L44.8009 65.6936L49.143 65.663C50.5835 65.6221 52.0444 65.5404 53.4645 65.285C54.9153 65.0295 56.2639 64.6107 57.5716 63.9466C58.8589 63.2927 60.044 62.4448 61.0759 61.4334C62.0975 60.4219 62.9557 59.247 63.6198 57.9699C64.2941 56.6724 64.713 55.3341 64.9786 53.9038C65.234 52.4939 65.3259 51.0534 65.3668 49.623Z" fill="white"/>
<path fill-rule="evenodd" clip-rule="evenodd" d="M94.7509 12.6885C85.2255 12.6885 78.0814 18.4892 78.1425 28.5642H86.9963C86.8741 24.5342 89.4387 20.6263 94.7509 20.6263C98.7809 20.6263 101.345 23.313 101.345 26.7324C101.345 30.2739 98.5367 32.2278 94.0182 34.426C88.0953 37.2959 84.5538 38.6392 78.1425 40.7763V52.3778H110.505V43.8293H90.1103C93.1634 42.9134 96.1553 41.7533 98.842 40.471C105.986 37.0516 110.199 33.2048 110.199 26.305C110.199 18.0007 103.971 12.6885 94.7509 12.6885ZM152.881 34.6703V31.6172H132.486V38.9445H144.088C142.867 42.7302 138.898 45.0505 134.135 45.0505C126.502 45.0505 122.106 39.0666 122.106 32.8384C122.106 26.6103 126.441 20.6263 134.196 20.6263C138.714 20.6263 142.5 22.6413 144.027 26.1218H152.881C151.293 18.8556 144.637 12.6885 133.952 12.6885C121.495 12.6885 113.558 21.1759 113.558 32.8384C113.558 44.501 121.74 52.9884 133.646 52.9884C146.042 52.9884 152.881 44.7452 152.881 34.6703ZM166.07 52.3778V13.2991H157.521V52.3778H166.07ZM195.134 24.9006H203.988C203.072 17.4512 196.539 12.6885 187.074 12.6885C177.488 12.6885 171.016 17.207 171.016 24.5953C171.016 32.7774 178.831 35.2809 184.388 36.1968C189.7 37.0516 195.134 37.8454 195.134 41.3869C195.134 44.1957 192.631 45.6612 188.174 45.6612C183.533 45.6612 180.297 43.3409 179.198 40.1657H170.344C171.199 47.8593 179.014 52.9884 187.746 52.9884C197.21 52.9884 204.232 48.9584 204.232 40.471C204.232 31.3119 196.844 30.1518 189.7 28.9306C184.327 28.0147 180.052 27.1598 180.052 24.1679C180.052 21.7254 182.312 20.0157 186.769 20.0157C191.959 20.0157 194.28 22.275 195.134 24.9006Z" fill="white"/>
</svg>
