<svg width="25" height="25" viewBox="0 0 25 25" fill="none" xmlns="http://www.w3.org/2000/svg">
<path d="M16.2578 8.88672V6.08672C16.2578 4.96661 16.2578 4.40656 16.0398 3.97874C15.8481 3.60241 15.5421 3.29645 15.1658 3.10471C14.738 2.88672 14.1779 2.88672 13.0578 2.88672H5.45781C4.33771 2.88672 3.77766 2.88672 3.34983 3.10471C2.97351 3.29645 2.66755 3.60241 2.4758 3.97874C2.25781 4.40656 2.25781 4.96661 2.25781 6.08672V13.6867C2.25781 14.8068 2.25781 15.3669 2.4758 15.7947C2.66755 16.171 2.97351 16.477 3.34983 16.6687C3.77766 16.8867 4.33771 16.8867 5.45781 16.8867H8.25781M11.4578 22.8867H19.0578C20.1779 22.8867 20.738 22.8867 21.1658 22.6687C21.5421 22.477 21.8481 22.171 22.0398 21.7947C22.2578 21.3669 22.2578 20.8068 22.2578 19.6867V12.0867C22.2578 10.9666 22.2578 10.4066 22.0398 9.97874C21.8481 9.60241 21.5421 9.29645 21.1658 9.10471C20.738 8.88672 20.1779 8.88672 19.0578 8.88672H11.4578C10.3377 8.88672 9.77766 8.88672 9.34983 9.10471C8.97351 9.29645 8.66755 9.60241 8.4758 9.97874C8.25781 10.4066 8.25781 10.9666 8.25781 12.0867V19.6867C8.25781 20.8068 8.25781 21.3669 8.4758 21.7947C8.66755 22.171 8.97351 22.477 9.34983 22.6687C9.77766 22.8867 10.3377 22.8867 11.4578 22.8867Z" stroke="white" stroke-width="2" stroke-linecap="round" stroke-linejoin="round"/>
</svg>
