<svg width="16" height="15" viewBox="0 0 16 15" fill="none" xmlns="http://www.w3.org/2000/svg">
<path fill-rule="evenodd" clip-rule="evenodd" d="M8.49353 15.0085C12.6407 15.0085 16.0027 11.6466 16.0027 7.49939C16.0027 3.3522 12.6407 -0.00976562 8.49353 -0.00976562C4.34634 -0.00976562 0.984375 3.3522 0.984375 7.49939C0.984375 11.6466 4.34634 15.0085 8.49353 15.0085ZM8.49353 13.5085L8.53501 13.5084C8.64956 13.3294 8.76713 13.1356 8.88481 12.9281C9.56128 11.7347 10.2172 10.1265 10.358 8.24087H6.62939C6.77018 10.1265 7.42615 11.7347 8.10261 12.9281C8.22029 13.1356 8.33787 13.3294 8.45242 13.5084L8.49353 13.5085ZM6.63071 6.74087C6.77422 4.8637 7.42819 3.26159 8.10268 2.07153C8.2205 1.86364 8.33822 1.66964 8.4529 1.49037L8.49353 1.49023L8.53452 1.49037C8.6492 1.66964 8.76693 1.86364 8.88475 2.07153C9.55923 3.26159 10.2132 4.8637 10.3567 6.74087H6.63071ZM11.8606 6.74087C11.7309 4.78851 11.1193 3.10916 10.4521 1.81664C12.5792 2.54962 14.1659 4.44328 14.4553 6.74088L11.8606 6.74087ZM11.8617 8.24087L14.4574 8.24088C14.1737 10.5459 12.5848 12.447 10.4527 13.1819C11.1216 11.8859 11.7346 10.2008 11.8617 8.24087ZM5.12687 6.74087H2.53179C2.8212 4.44312 4.40804 2.54935 6.53542 1.81648C5.86821 3.10903 5.25649 4.78843 5.12687 6.74087ZM2.52967 8.24087H5.12573C5.25283 10.2009 5.86585 11.886 6.53479 13.1821C4.40248 12.4472 2.81334 10.5461 2.52967 8.24087Z" fill="white"/>
</svg>
