<svg width="25" height="25" viewBox="0 0 25 25" fill="none" xmlns="http://www.w3.org/2000/svg">
<path d="M19.4231 18.9831L15.3731 14.9406C16.1959 13.8925 16.6423 12.5981 16.6406 11.2656C16.6406 10.0789 16.2887 8.9189 15.6294 7.93221C14.9702 6.94551 14.0331 6.17648 12.9367 5.72235C11.8404 5.26822 10.634 5.1494 9.47009 5.38092C8.3062 5.61243 7.2371 6.18387 6.39799 7.02299C5.55887 7.8621 4.98743 8.9312 4.75592 10.0951C4.5244 11.259 4.64322 12.4654 5.09735 13.5617C5.55148 14.6581 6.32051 15.5952 7.30721 16.2544C8.2939 16.9137 9.45394 17.2656 10.6406 17.2656C11.9731 17.2673 13.2675 16.8209 14.3156 15.9981L18.3581 20.0481L19.4231 18.9831ZM6.14063 11.2656C6.14002 10.5271 6.32117 9.79982 6.66811 9.14789C7.01505 8.49595 7.5171 7.93942 8.12998 7.52739C8.74286 7.11537 9.44773 6.86051 10.1824 6.78531C10.9171 6.71011 11.6589 6.81687 12.3426 7.09618C13.0262 7.37549 13.6306 7.81876 14.1024 8.38689C14.5743 8.95502 14.899 9.63053 15.0481 10.3538C15.1971 11.0772 15.1658 11.826 14.957 12.5344C14.7481 13.2427 14.3682 13.8888 13.8506 14.4156L13.7906 14.4756C13.158 15.0957 12.3564 15.5153 11.4863 15.6818C10.6162 15.8483 9.71634 15.7543 8.89946 15.4115C8.08259 15.0687 7.38506 14.4925 6.89429 13.755C6.40352 13.0175 6.14134 12.1515 6.14063 11.2656V11.2656Z" fill="white" fill-opacity="0.64"/>
</svg>
