<svg width="25" height="24" viewBox="0 0 25 24" fill="none" xmlns="http://www.w3.org/2000/svg">
<path d="M9.5275 13.51L16.3575 17.49M16.3475 6.51L9.5275 10.49M21.9375 5C21.9375 6.65685 20.5944 8 18.9375 8C17.2806 8 15.9375 6.65685 15.9375 5C15.9375 3.34315 17.2806 2 18.9375 2C20.5944 2 21.9375 3.34315 21.9375 5ZM9.9375 12C9.9375 13.6569 8.59435 15 6.9375 15C5.28065 15 3.9375 13.6569 3.9375 12C3.9375 10.3431 5.28065 9 6.9375 9C8.59435 9 9.9375 10.3431 9.9375 12ZM21.9375 19C21.9375 20.6569 20.5944 22 18.9375 22C17.2806 22 15.9375 20.6569 15.9375 19C15.9375 17.3431 17.2806 16 18.9375 16C20.5944 16 21.9375 17.3431 21.9375 19Z" stroke="white" stroke-width="2" stroke-linecap="round" stroke-linejoin="round"/>
</svg>
