<svg width="201" height="60" viewBox="0 0 201 60" fill="none" xmlns="http://www.w3.org/2000/svg">
<g clip-path="url(#clip0_1070_24882)">
<path d="M47.9935 0H12.4392C5.6892 0 0.210938 5.47826 0.210938 12.2283V47.7826C0.210938 54.5326 5.6892 60.0109 12.4392 60.0109H47.9935C54.7436 60.0109 60.2218 54.5326 60.2218 47.7826V12.2283C60.2218 5.47826 54.7436 0 47.9935 0ZM45.2979 20.7283C45.2979 27.9348 40.2327 33.8696 33.5588 35.3696V50.2717H26.874V35.3696C20.2001 33.8587 15.1349 27.9348 15.1349 20.7283V11.6739H21.8196V20.7283C21.8196 25.2065 25.5044 28.9674 30.2218 28.9674C34.9392 28.9674 38.624 25.2065 38.624 20.7283V11.6739H45.3088V20.7283H45.2979Z" fill="#AB844C"/>
<path d="M107.355 23.3047C101.887 23.3047 97.8438 27.5221 97.8438 32.609C97.8438 37.696 101.855 41.8808 107.289 41.8808C112.724 41.8808 116.833 37.6634 116.833 32.609C116.833 27.5547 112.822 23.3047 107.355 23.3047ZM107.355 38.3373C104.181 38.3373 101.92 35.7069 101.92 32.609C101.92 29.5112 104.007 26.8808 107.279 26.8808C110.55 26.8808 112.735 29.4786 112.735 32.609C112.735 35.7395 110.648 38.3373 107.344 38.3373H107.355Z" fill="#AB844C"/>
<path d="M155.176 17.8672H136.023V21.715H143.513V41.4759H147.697V21.715H155.176V17.8672Z" fill="#AB844C"/>
<path d="M161.792 23.3047C156.325 23.3047 152.281 27.5221 152.281 32.609C152.281 37.696 156.292 41.8808 161.727 41.8808C167.162 41.8808 171.27 37.6634 171.27 32.609C171.27 27.5547 167.26 23.3047 161.792 23.3047ZM161.792 38.3373C158.618 38.3373 156.368 35.7069 156.368 32.609C156.368 29.5112 158.455 26.8808 161.727 26.8808C164.999 26.8808 167.194 29.4786 167.194 32.609C167.194 35.7395 165.107 38.3373 161.803 38.3373H161.792Z" fill="#AB844C"/>
<path d="M183.441 23.3047C177.973 23.3047 173.93 27.5221 173.93 32.609C173.93 37.696 177.941 41.8808 183.375 41.8808C188.81 41.8808 192.919 37.6634 192.919 32.609C192.919 27.5547 188.908 23.3047 183.441 23.3047ZM183.441 38.3373C180.267 38.3373 178.017 35.7069 178.017 32.609C178.017 29.5112 180.104 26.8808 183.375 26.8808C186.647 26.8808 188.832 29.4786 188.832 32.609C188.832 35.7395 186.745 38.3373 183.441 38.3373Z" fill="#AB844C"/>
<path d="M200.646 17.8672H196.57V41.465H200.646V17.8672Z" fill="#AB844C"/>
<path d="M131.858 33.8818C131.858 36.0014 130.086 37.8057 127.804 37.8057C125.521 37.8057 123.749 36.0122 123.749 33.8818V23.9688H119.641V33.8818C119.641 38.3601 123.336 41.9144 127.804 41.9144C132.271 41.9144 135.967 38.3601 135.967 33.8818V23.9688H131.858V33.8818Z" fill="#AB844C"/>
<path d="M92.5503 24.0438C92.5503 26.7612 90.2785 29.0438 87.3764 29.0438C84.4742 29.0438 82.2024 26.7612 82.2024 24.0438V18.5547H78.0938V24.0438C78.0938 28.4243 81.2133 32.0221 85.322 32.9351V41.2503H89.4307V32.9351C93.5394 32.0221 96.659 28.4243 96.659 24.0438V18.5547H92.5503V24.0438Z" fill="#AB844C"/>
</g>
<defs>
<clipPath id="clip0_1070_24882">
<rect width="200.435" height="60" fill="white" transform="translate(0.210938)"/>
</clipPath>
</defs>
</svg>
